<svg version="1.1" id="Layer_1" xmlns="http://www.w3.org/2000/svg" x="0" y="0" viewBox="0 0 512.001 512.001" style="enable-background:new 0 0 512.001 512.001" xml:space="preserve"><path style="fill:#d62f2d" d="M379.204 266.236c-1.879 0-3.78-.07-5.648-.206-11.05-.806-19.356-10.418-18.55-21.468.807-11.05 10.416-19.352 21.469-18.55.9.066 1.819.099 2.729.099 20.173 0 36.585-16.412 36.585-36.585 0-1.337-.072-2.687-.215-4.01-1.193-11.016 6.77-20.913 17.786-22.106 11.014-1.19 20.913 6.77 22.105 17.786.298 2.751.449 5.553.449 8.329 0 42.299-34.412 76.711-76.71 76.711z"/><path style="fill:#ed3e3c" d="M415.008 97.65V44.28a70.726 70.726 0 0 1 15.408-1.709c38.929 0 70.489 31.558 70.489 70.487s-31.558 70.487-70.489 70.487c-38.929 0-70.487-31.558-70.487-70.487 0-5.295.603-10.446 1.709-15.408h53.37z"/><path style="fill:#d62f2d" d="M491.941 331.928a20.005 20.005 0 0 1-14.704-6.409c-20.311-21.868-49.921-36.124-83.371-40.14-11.001-1.321-18.849-11.31-17.528-22.311 1.321-11.001 11.302-18.851 22.311-17.528 42.871 5.148 81.222 23.853 107.989 52.672 7.541 8.119 7.073 20.813-1.046 28.354a20.006 20.006 0 0 1-13.651 5.362zM482.529 411.418c-6.567 0-13-3.219-16.844-9.136-16.534-25.457-43.78-44.737-76.72-54.289-10.642-3.086-16.767-14.215-13.68-24.856 3.086-10.642 14.212-16.766 24.856-13.681 42.186 12.234 77.414 37.438 99.195 70.969 6.035 9.292 3.396 21.718-5.897 27.753a19.985 19.985 0 0 1-10.91 3.24zM434.652 469.431c-7.463 0-14.63-4.182-18.087-11.357-13.569-28.15-40.168-51.891-72.98-65.132-10.275-4.146-15.242-15.837-11.096-26.112 4.148-10.276 15.839-15.243 26.113-11.096 42.575 17.181 75.996 47.339 94.109 84.92 4.811 9.982.619 21.972-9.362 26.783a19.995 19.995 0 0 1-8.697 1.994z"/><path style="fill:#ed3e3c" d="M132.796 266.236c-42.298 0-76.709-34.412-76.709-76.709 0-2.775.151-5.577.449-8.329 1.193-11.016 11.097-18.972 22.105-17.786 11.016 1.193 18.979 11.091 17.786 22.106a37.46 37.46 0 0 0-.215 4.01c0 20.172 16.412 36.585 36.586 36.585.91 0 1.828-.033 2.729-.099 11.062-.804 20.663 7.499 21.469 18.55.805 11.05-7.499 20.663-18.55 21.468a78.832 78.832 0 0 1-5.65.204z"/><path style="fill:#ed3e3c" d="M20.058 331.928a19.994 19.994 0 0 1-13.649-5.363c-8.119-7.541-8.587-20.235-1.046-28.354 26.769-28.819 65.12-47.524 107.989-52.672 11.009-1.317 20.989 6.527 22.311 17.528 1.321 11.001-6.527 20.991-17.528 22.311-33.451 4.017-63.06 18.272-83.373 40.141a20.006 20.006 0 0 1-14.704 6.409zM29.47 411.418a19.967 19.967 0 0 1-10.909-3.239c-9.293-6.035-11.932-18.461-5.897-27.753 21.78-33.531 57.008-58.736 99.195-70.969 10.644-3.087 21.77 3.039 24.856 13.681 3.087 10.641-3.039 21.77-13.681 24.856-32.938 9.552-60.186 28.832-76.72 54.289-3.842 5.914-10.278 9.135-16.844 9.135zM77.347 469.431c-2.922 0-5.888-.641-8.696-1.994-9.982-4.811-14.173-16.803-9.362-26.783 18.112-37.58 51.534-67.739 94.109-84.92 10.277-4.146 21.967.821 26.113 11.096 4.146 10.275-.821 21.966-11.096 26.112-32.813 13.241-59.412 36.982-72.98 65.132-3.457 7.173-10.625 11.357-18.088 11.357z"/><ellipse style="fill:#ff5e5b" cx="255.996" cy="294.45" rx="144.436" ry="120.976"/><path style="fill:#ff5e5b" d="M96.991 97.65V44.28a70.726 70.726 0 0 0-15.408-1.709c-38.929 0-70.487 31.558-70.487 70.487s31.558 70.487 70.487 70.487 70.487-31.558 70.487-70.487c0-5.295-.602-10.446-1.709-15.408h-53.37z"/><path style="fill:#ed3e3c" d="M400.43 294.451c0-66.813-64.664-120.975-144.431-120.976v241.952c79.768.001 144.431-54.162 144.431-120.976z"/></svg>